<svg version="1" xmlns="http://www.w3.org/2000/svg" width="880" height="880" viewBox="0 0 660.000000 660.000000"><path d="M0 330v330h660V0H0v330zm359-209.4c29.9 4.3 56.3 14 77.8 28.4 9.2 6.1 11.2 8.2 11.2 11.8 0 1-2.5 7.4-5.6 14.3-3.1 6.8-9.6 22.1-14.6 33.9-5 11.8-9.7 22.3-10.6 23.3-2.1 2.3-3.8 1.7-14.6-5.8-15.7-10.8-32.1-17.9-49.7-21.5-12.6-2.6-33.2-2.4-40.9.4-6.9 2.5-13.9 8.4-17.4 14.5-2.5 4.7-3.1 6.8-3.4 14.2-1.2 23.8 11.1 34.3 64.3 55.4 57.2 22.6 82.7 40 98 67 14.2 25 17.6 65 8.4 98.5-2.7 9.6-10.6 26.5-16.3 34.4-6.1 8.5-20.7 22.4-29.4 28.1-18.4 11.8-41.7 19.5-68.1 22.6-15.9 1.8-52.4.7-68-2.1-25.7-4.5-45.5-11.2-69.1-23.1-16.8-8.5-22.7-12.2-24.1-15.2-.9-1.9 1-8.3 11.2-38.8 6.7-20 12.8-37.6 13.7-39 2-3.5 4.1-2.9 15.2 4.6 24.1 16.3 58 27.7 87.1 29.2 26.5 1.4 43.8-5 51.3-18.8 2.4-4.4 3.1-6.9 3.4-13.7.5-9.9-.7-15.1-5.4-21.4-8.9-12.4-26.6-21.6-75.9-39.9-44-16.2-69.2-35.4-83.3-63.4-12.6-25.3-15.4-66.3-6.5-97.5 8.5-29.7 29.5-54.4 57.8-67.9 15.1-7.3 33.7-12.2 52.9-14.1 11.9-1.1 37.4-.4 50.6 1.6z"/></svg>